<?xml version="1.0" encoding="utf-8"?>
<!-- Generator: Adobe Illustrator 23.0.3, SVG Export Plug-In . SVG Version: 6.00 Build 0)  -->
<svg version="1.1" id="Capa_1" xmlns="http://www.w3.org/2000/svg" xmlns:xlink="http://www.w3.org/1999/xlink" x="0px" y="0px"
	 viewBox="0 0 498.6 512" style="enable-background:new 0 0 498.6 512;" xml:space="preserve">
<style type="text/css">
	.st0{fill:#FFFFFF;}
</style>
<g>
	<g>
		<path class="st0" d="M266.2,6.7c-13.8-9.1-31.8-8.9-45.4,0.5L17.3,149C6.5,156.6,0,168.9,0,182.2v152.7c0,13.6,6.8,26.2,18.1,33.7
			l206.8,136.7c13.5,8.9,31.1,8.9,44.6,0L480.5,366c11.3-7.5,18.1-20.1,18.1-33.7v-150c0-13.6-6.8-26.2-18.1-33.7L266.2,6.7z
			 M423.7,172.1l-78,52.3l-73.1-53.2l-0.5-104.6L423.7,172.1z M219.3,66.8v102.3l-74.9,52.4l-74.7-50.1L219.3,66.8z M49.2,221.9
			l48.4,32.4l-48.4,33.8V221.9z M220.6,440L69.7,338.9l75.4-52.7l75.5,50.7L220.6,440L220.6,440z M192,253.4l48.8-34.2l56.9,37.4
			l-50.4,33.9L192,253.4z M273.9,440V336.8l72.2-48.4l77.7,51.1L273.9,440z M445.3,289.9l-51.2-33.7l51.2-34.4V289.9z"/>
	</g>
</g>
</svg>
