<svg id="Capa_1" data-name="Capa 1" xmlns="http://www.w3.org/2000/svg" viewBox="0 0 314 336.7"><defs><style>.cls-1{fill:#fff;}</style></defs><title>github</title><path class="cls-1" d="M288.75,68.08q11.5-30-2.5-65.25L280,2.08q-6.5-.75-23.38,5.5t-37.87,20.5A230,230,0,0,0,157,19.83a225.51,225.51,0,0,0-61.5,8.25A213.35,213.35,0,0,0,70.38,13.21a128.37,128.37,0,0,0-19-8A64.82,64.82,0,0,0,38.13,2.58a47,47,0,0,0-7.88-.25,15.9,15.9,0,0,0-2.5.5q-14,35.51-2.5,65.25Q0,95.34,0,134.08a178.4,178.4,0,0,0,3.5,36.63,116.49,116.49,0,0,0,9.5,28.5,89.31,89.31,0,0,0,14.88,21.25,90.58,90.58,0,0,0,18.5,15.25,113.84,113.84,0,0,0,21.75,10.12,180.59,180.59,0,0,0,23,6.5,223.07,223.07,0,0,0,23.87,3.5q-20.5,14-20.5,44.5l.75,38.37h124.5V300.33q0-30.25-20.75-44.5a223.07,223.07,0,0,0,23.87-3.5,180.59,180.59,0,0,0,23-6.5,113.84,113.84,0,0,0,21.75-10.12,90.58,90.58,0,0,0,18.5-15.25A89.31,89.31,0,0,0,301,199.21a116.49,116.49,0,0,0,9.5-28.5,178.4,178.4,0,0,0,3.5-36.63Q314,95.34,288.75,68.08Z" transform="translate(0 -2)"/></svg>