<svg id="Capa_1" data-name="Capa 1" xmlns="http://www.w3.org/2000/svg" viewBox="0 0 314.01 336.7"><defs><style>.cls-1{fill:#7d32da;}</style></defs><title>github--hover</title><path class="cls-1" d="M288.75,66.08q11.5-30-2.5-65.25L280,.08q-6.5-.75-23.38,5.5t-37.87,20.5A230,230,0,0,0,157,17.83a225.42,225.42,0,0,0-61.5,8.25A214.23,214.23,0,0,0,70.38,11.21a128.19,128.19,0,0,0-19-8A64.26,64.26,0,0,0,38.13.58,47.16,47.16,0,0,0,30.25.33a16.27,16.27,0,0,0-2.5.5q-14,35.51-2.5,65.25Q0,93.34,0,132.08a178.07,178.07,0,0,0,3.5,36.63,116.5,116.5,0,0,0,9.5,28.5,89.23,89.23,0,0,0,14.88,21.25,90.33,90.33,0,0,0,18.5,15.25,113.76,113.76,0,0,0,21.75,10.12,181.41,181.41,0,0,0,23,6.5,223.6,223.6,0,0,0,23.87,3.5q-20.5,14-20.5,44.5l.75,38.37h124.5V298.33q0-30.25-20.75-44.5a223.6,223.6,0,0,0,23.87-3.5,181.41,181.41,0,0,0,23-6.5,113.76,113.76,0,0,0,21.75-10.12,90.33,90.33,0,0,0,18.5-15.25A89.23,89.23,0,0,0,301,197.21a116.5,116.5,0,0,0,9.5-28.5,178.07,178.07,0,0,0,3.5-36.63Q314,93.34,288.75,66.08Z" transform="translate(0.01 0)"/></svg>