<svg id="Слой_1" data-name="Слой 1" xmlns="http://www.w3.org/2000/svg" viewBox="0 0 639.38 611.14"><defs><style>.cls-1{fill:#7d32da;}</style></defs><title>linkedin--hover</title><path class="cls-1" d="M77.54,0C30.65,0,0,30.79,0,71.25c0,39.57,29.74,71.24,75.74,71.24h.89c47.8,0,77.55-31.67,77.55-71.24C153.28,30.79,124.43,0,77.54,0Z"/><path class="cls-1" d="M8.1,198.79H145.16V611.14H8.1Z"/><path class="cls-1" d="M481.58,189.11c-73.94,0-123.52,69.48-123.52,69.48v-59.8H221V611.14H358.06V380.87c0-12.33.89-24.64,4.51-33.46,9.91-24.61,32.46-50.11,70.32-50.11,49.6,0,69.44,37.81,69.44,93.24v220.6H639.38V374.7C639.38,248.05,571.75,189.11,481.58,189.11Z"/></svg>